<?xml version="1.0" encoding="UTF-8"?>
<svg id="Layer_1" xmlns="http://www.w3.org/2000/svg" xmlns:xlink="http://www.w3.org/1999/xlink" version="1.1" viewBox="0 0 880 168">
  <!-- Generator: Adobe Illustrator 29.4.0, SVG Export Plug-In . SVG Version: 2.1.0 Build 152)  -->
  <defs>
    <style>
      .st0 {
        fill: none;
      }

      .st1 {
        clip-path: url(#clippath);
      }
    </style>
    <clipPath id="clippath">
      <rect class="st0" width="880" height="168"/>
    </clipPath>
  </defs>
  <g class="st1">
    <g>
      <path d="M255.26,25.38h24.32l17.51,72.14c3.25,13.62,3.89,21.73,3.89,21.73h.33s1.13-7.94,4.38-21.73l16.69-72.14h27.56l17.67,72.14c3.4,14.1,4.22,21.73,4.22,21.73h.49s.33-7.62,3.56-21.73l16.86-72.14h24.31l-30.79,118.34h-27.07l-18.64-71.66c-3.89-15.56-4.22-22.53-4.22-22.53h-.33s-.33,6.97-3.89,22.53l-17.51,71.66h-27.88l-31.45-118.34Z"/>
      <path d="M412.98,100.73c0-27.08,17.51-44.58,43.94-44.58s43.77,17.51,43.77,44.58-17.51,44.91-43.77,44.91c-26.42-.01-43.94-17.68-43.94-44.91ZM477.99,100.73c0-17.51-8.42-27.4-21.07-27.4-13.62,0-21.24,11.03-21.24,27.4,0,17.83,8.42,27.72,21.24,27.72,13.62,0,21.07-11.03,21.07-27.72Z"/>
      <path d="M511.55,57.47h21.56v15.89h.49c3.73-8.27,12.64-16.53,27.88-16.53,2.59,0,4.22.33,5.35.64v21.56h-.64s-1.95-.64-7.29-.64c-16.69,0-25.77,9.88-25.77,28.36v36.96h-21.56V57.47Z"/>
      <path d="M576.87,25.38h21.55v37.93c0,22.37-.33,26.42-.33,26.42h.33l32.1-32.25h26.91l-37.59,37.29,43.61,48.96h-25.46l-31.45-35.67-8.11,7.94v27.72h-21.55V25.38Z"/>
      <path d="M663.76,84.98c0-36.47,22.7-60.79,56.74-60.79s56.74,24.31,56.74,60.79-22.7,60.79-56.74,60.79-56.74-24.31-56.74-60.79ZM753.72,84.98c0-24.8-13.29-41.51-33.24-41.51s-33.23,16.7-33.23,41.51,13.29,41.51,33.23,41.51,33.24-16.7,33.24-41.51Z"/>
      <path d="M785.49,104.33h24.64c0,13.95,9.57,21.73,24.16,21.73,12.32,0,20.75-6.16,20.75-14.92,0-9.89-6.48-12.49-27.08-16.53-18.81-3.73-38.75-10.05-38.75-34.7,0-20.58,17.51-36.14,44.25-36.14s45.07,14.59,45.07,36.63h-24.64c0-10.7-8.27-17.35-20.42-17.35s-19.94,5.99-19.94,14.75c0,9.24,5.35,12.8,21.88,16.21,24.47,5.19,44.58,7.94,44.58,35.17,0,21.58-18.81,36.17-46.53,36.17s-47.99-16.38-47.99-41.01Z"/>
      <path d="M0,84c0,3.68.97,7.36,2.84,10.52l33.94,58.78c3.48,6,8.78,10.9,15.36,13.1,12.97,4.32,26.39-1.23,32.78-12.32l8.19-14.19-32.33-55.88,34.13-59.17,8.19-14.2c2.45-4.26,5.74-7.74,9.61-10.52h-52.65c-9.23,0-17.74,4.9-22.33,12.9L2.84,73.48c-1.87,3.16-2.84,6.84-2.84,10.52Z"/>
      <path d="M193.57,84c0-3.68-.97-7.36-2.84-10.52l-34.39-59.56c-6.39-11.03-19.81-16.58-32.78-12.32-6.58,2.19-11.87,7.1-15.36,13.1l-7.74,13.36,32.33,55.94-34.13,59.17-8.19,14.2c-2.45,4.19-5.74,7.74-9.61,10.52h52.65c9.23,0,17.74-4.9,22.32-12.9l34.91-60.46c1.87-3.16,2.84-6.84,2.84-10.52Z"/>
    </g>
  </g>
</svg>